<svg width="200" height="120" viewBox="0 0 200 120" fill="none" xmlns="http://www.w3.org/2000/svg">
<path d="M56.4106 43.5452C56.4106 46.0535 56.6106 48.0602 57.1107 49.7659C57.6108 50.9699 58.3109 52.5752 59.211 54.3813C59.6111 54.7826 59.7111 55.3846 59.7111 55.8863C59.7111 56.5886 59.311 57.1906 58.4109 57.893L54.2103 60.7023C53.6102 61.1037 53.0101 61.3043 52.51 61.3043C51.8099 61.3043 51.2098 60.903 50.5097 60.301C49.6095 59.2977 48.8094 58.2943 48.1093 57.1906C47.5092 56.087 46.8091 54.7826 46.109 53.2776C40.9082 59.398 34.4072 62.5084 26.5059 62.5084C20.9051 62.5084 16.5044 60.903 13.2039 57.6923C10.0034 54.4816 8.3031 50.1672 8.3031 44.7492C8.3031 39.2308 10.3034 34.7157 14.304 31.1037C18.4047 27.6923 23.8055 25.8863 30.6066 25.8863C32.9069 25.8863 35.0073 26.087 37.7077 26.4883C40.008 26.7893 42.7085 27.291 45.3089 27.893V23.0769C45.3089 17.9599 44.3087 14.6488 42.2084 12.3411C40.008 10.2341 36.5075 9.3311 31.4067 9.3311C29.0063 9.3311 26.606 9.63211 24.2056 10.1338C21.7052 10.7358 19.3048 11.4381 17.0045 12.4415C15.9043 12.8428 15.0041 13.1438 14.7041 13.2441C14.204 13.4448 13.904 13.4448 13.6039 13.4448C12.7038 13.4448 12.2037 12.8428 12.2037 11.4381V8.12709C12.2037 7.12374 12.3037 6.32107 12.7038 5.8194C13.0038 5.31772 13.6039 4.91639 14.5041 4.61538C16.9044 3.2107 19.6049 2.20736 22.9054 1.40468C26.3005 0.514115 29.7978 0.0755723 33.307 0.100337C41.2082 0.100337 47.0091 1.90636 50.7097 5.5184C54.4103 9.13044 56.2106 14.6488 56.2106 21.9732V43.5452H56.4106ZM29.4064 53.7793C31.6067 53.7793 33.8071 53.3779 36.2074 52.5752C38.6078 51.7726 40.7082 50.2676 42.5084 48.2609C43.6086 46.9565 44.4087 45.5518 45.0088 43.9465C45.0088 42.3411 45.5089 40.4348 45.5089 38.1271V35.4181C43.5086 34.7157 41.5083 34.7157 39.3079 34.214C37.2479 33.9883 35.1789 33.8544 33.107 33.8127C28.6063 33.8127 25.4058 34.7157 23.2054 36.5217C21.0051 38.3278 20.0049 40.8361 20.0049 44.1472C20.0049 47.3579 20.705 49.7659 22.4053 51.2709C24.0055 52.9766 26.3059 53.7793 29.4064 53.7793ZM82.8147 60.903C81.8465 60.932 80.8856 60.7255 80.0143 60.301C79.7142 59.7993 79.2141 58.8963 78.8141 57.6923L63.2117 6.1204C62.8116 4.61539 62.6116 3.91304 62.6116 3.41137C62.6116 2.30769 63.1116 1.70569 64.2118 1.70569H70.7128C72.013 1.70569 72.9132 1.90636 73.3132 2.40803C73.9133 2.80937 74.3134 3.71237 74.7134 5.01672L85.8152 49.1639L96.2168 5.01672C96.5168 3.71237 96.9169 2.80937 97.517 2.40803C98.0171 2.00669 98.9172 1.70569 100.017 1.70569H105.518C106.718 1.70569 107.619 1.90636 108.119 2.40803C108.619 2.80937 109.119 3.71237 109.419 5.01672L120.021 49.7659L131.422 5.01672C131.822 3.71237 132.322 2.80937 132.722 2.40803C133.323 2.00669 134.123 1.70569 135.323 1.70569H141.524C142.624 1.70569 143.224 2.30769 143.224 3.41137C143.224 3.71238 143.124 4.11371 143.024 4.61538C143.024 4.61538 142.824 5.41806 142.624 6.1204L126.522 57.6923C126.121 59.097 125.721 59.7993 125.021 60.301C124.621 60.7023 123.721 61.0033 122.621 61.0033H116.92C115.62 61.0033 115.02 60.8027 114.22 60.301C113.547 59.5857 113.126 58.6698 113.019 57.6923L102.718 14.6488L92.4162 57.592C92.1162 58.8963 91.7161 59.7993 91.216 60.301C90.3902 60.7524 89.4543 60.9611 88.5156 60.903H82.8147ZM168.328 62.709C165.028 62.709 161.327 62.3077 158.026 61.505C154.726 60.7023 152.126 59.7993 150.425 58.8963C149.557 58.4772 148.827 57.8152 148.325 56.99C148.053 56.4274 147.916 55.809 147.925 55.1839V51.7726C147.925 50.3679 148.425 49.7659 149.425 49.7659H150.625C151.025 49.7659 151.625 50.2676 152.326 50.5686C154.526 51.5719 157.026 52.3746 159.627 52.8763C162.327 53.3779 165.028 53.6789 167.528 53.6789C171.729 53.6789 175.029 52.9766 177.229 51.4716C179.53 49.7659 180.73 47.8595 180.73 45.1505C180.73 43.2441 180.03 41.7391 178.93 40.4348C177.729 39.2308 175.429 38.0268 172.229 37.0234L162.527 34.0134C157.726 32.408 154.126 30.2007 151.925 27.1906C149.778 24.4043 148.617 20.9801 148.625 17.4582C148.625 14.6488 149.225 12.2408 150.425 10.1338C151.625 7.92642 153.226 6.1204 155.026 4.61538C157.226 3.11037 159.427 2.00669 162.127 1.20401C164.727 0.401337 167.528 0 170.528 0C171.929 0 173.429 0.100337 175.029 0.301005C176.429 0.501674 177.83 0.802675 179.23 1.00334C180.63 1.40468 181.83 1.70569 183.03 2.10702C184.23 2.50836 185.031 2.9097 185.831 3.31104C186.731 3.81271 187.431 4.31438 187.831 4.91639C188.231 5.5184 188.431 6.22074 188.431 7.12375V10.3344C188.431 11.7391 187.931 12.4415 186.931 12.4415C186.431 12.4415 185.531 12.1405 184.331 11.6388C180.63 9.93311 176.329 9.0301 171.629 9.0301C167.828 9.0301 165.028 9.63211 162.727 10.9365C160.727 12.1405 159.627 14.1472 159.627 16.8562C159.627 18.7625 160.327 20.3679 161.627 21.5719C162.927 22.8762 165.428 24.0803 168.928 25.2843L178.43 28.2943C183.23 29.699 186.631 31.9064 188.731 34.7157C190.732 37.4247 191.732 40.5351 191.732 44.0468C191.732 46.8562 191.132 49.4649 190.031 51.7726C188.831 53.9799 187.231 55.9866 185.031 57.592C183.13 59.2977 180.63 60.5017 177.83 61.4047C175.029 62.3077 171.629 62.709 168.328 62.709ZM180.83 95.2174C158.927 111.371 127.122 120 100.017 120C61.5114 120 27.006 105.752 0.901949 82.1739C-1.19838 80.2676 0.701919 77.7592 3.20231 79.2642C31.4067 95.6187 66.1121 105.552 102.118 105.552C126.421 105.552 153.126 100.535 177.629 89.8997C181.33 88.3946 184.431 92.5084 180.83 95.2174ZM190.031 84.8829C187.131 81.1706 171.429 83.0769 164.327 83.8796C162.227 84.1806 161.927 82.2742 163.827 80.8696C176.329 72.1405 196.932 74.8495 199.233 77.5585C201.633 80.5686 198.633 101.237 186.931 111.07C185.031 112.575 183.33 111.773 184.13 109.967C186.831 103.144 192.732 88.2943 190.031 84.8829Z" fill="url(#paint0_linear_3_31)"/>
<defs>
<linearGradient id="paint0_linear_3_31" x1="100" y1="0" x2="100" y2="120" gradientUnits="userSpaceOnUse">
<stop stop-color="#1F2937"/>
<stop offset="1" stop-color="#374151"/>
</linearGradient>
</defs>
</svg>
