<svg width="78" height="120" viewBox="0 0 78 120" fill="none" xmlns="http://www.w3.org/2000/svg">
<path fill-rule="evenodd" clip-rule="evenodd" d="M17.3202 43.2431C15.1131 43.2431 12.9275 43.6764 10.8884 44.5184C8.84925 45.3603 6.99644 46.5944 5.43574 48.1501C3.87505 49.7058 2.63704 51.5527 1.7924 53.5854C0.947753 55.6181 0.513022 57.7966 0.513022 59.9968C0.513022 62.1969 0.947753 64.3755 1.7924 66.4081C2.63704 68.4408 3.87505 70.2877 5.43574 71.8434C6.99644 73.3991 8.84925 74.6332 10.8884 75.4752C12.9275 76.3171 15.1131 76.7504 17.3202 76.7504H34.1275V60.334C34.1249 60.1092 34.1249 59.8843 34.1275 59.6595V43.2431H17.3202ZM34.1275 33.5139H17.3202C12.8618 33.5139 8.58602 31.7484 5.43344 28.6059C2.28087 25.4633 0.509767 21.2011 0.509767 16.7569C0.509767 12.3127 2.28087 8.05053 5.43344 4.90799C8.58602 1.76546 12.8618 0 17.3202 0H34.1275V33.5139ZM43.8878 0V33.5139H60.695C65.0961 33.4275 69.2878 31.6242 72.3697 28.491C75.4516 25.3579 77.178 21.1449 77.178 16.7569C77.178 12.369 75.4516 8.15598 72.3697 5.02284C69.2878 1.88971 65.0961 0.0863171 60.695 0H43.8878ZM60.695 43.2366C56.2833 43.236 52.0482 44.9646 48.9038 48.0492C45.7594 51.1339 43.9578 55.3272 43.8878 59.7243V60.2627C43.9416 63.5641 44.9729 66.7761 46.8522 69.4951C48.7314 72.2142 51.3748 74.3191 54.4503 75.5455C57.5257 76.7719 60.8962 77.065 64.1382 76.3881C67.3803 75.7113 70.3494 74.0945 72.6727 71.741C74.996 69.3875 76.5698 66.4021 77.1965 63.1599C77.8231 59.9176 77.4747 56.5631 76.195 53.5176C74.9152 50.4721 72.7613 47.8714 70.0036 46.0423C67.2459 44.2131 64.0074 43.237 60.695 43.2366ZM17.3202 86.4797C13.9945 86.4784 10.7431 87.4602 7.97726 89.3011C5.2114 91.1419 3.05534 93.7591 1.78175 96.8215C0.508157 99.8839 0.174259 103.254 0.822285 106.506C1.47031 109.757 3.07115 112.744 5.42233 115.089C7.77352 117.433 10.7694 119.03 14.0312 119.677C17.2929 120.325 20.6739 119.993 23.7466 118.725C26.8193 117.456 29.4456 115.308 31.2934 112.552C33.1412 109.796 34.1275 106.555 34.1275 103.24V86.4797H17.3202Z" fill="url(#paint0_linear_3_19)"/>
<defs>
<linearGradient id="paint0_linear_3_19" x1="39" y1="0" x2="39" y2="120" gradientUnits="userSpaceOnUse">
<stop stop-color="#1F2937"/>
<stop offset="1" stop-color="#374151"/>
</linearGradient>
</defs>
</svg>
