<svg width="120" height="120" viewBox="0 0 120 120" fill="none" xmlns="http://www.w3.org/2000/svg">
<path d="M20 0C8.95431 0 0 8.95431 0 20V100C0 111.046 8.95431 120 20 120H100C111.046 120 120 111.046 120 100V20C120 8.95431 111.046 0 100 0H20ZM65.3057 93.5871C65.3057 105.266 58.4486 110.597 48.4586 110.597C41.8267 110.597 37.2472 108.082 34.222 104.505C32.3814 102.329 33.3873 99.1648 35.8274 97.6921V97.6921C38.5057 96.0756 41.6318 97.3822 44.1141 99.2861C45.1219 100.059 46.3501 100.526 47.9786 100.526C51.6729 100.526 54.03 99.0771 54.03 93.4286V60.735C54.03 57.6213 56.5542 55.0971 59.6679 55.0971V55.0971C62.7816 55.0971 65.3057 57.6213 65.3057 60.735V93.5871ZM91.9821 110.595C91.9808 110.596 91.9789 110.597 91.9769 110.597C83.9727 110.596 78.1287 107.687 74.3472 103.396C72.4088 101.197 73.4198 97.9316 75.9592 96.4664V96.4664C78.5545 94.9691 81.742 95.9781 84.0202 97.9243C85.9771 99.596 88.4345 100.633 91.74 100.633C96.3986 100.633 99.4029 98.3014 99.4029 95.0614C99.4029 91.2043 96.3471 89.8371 91.1786 87.5614L88.3671 86.3571C80.2243 82.9029 74.8414 78.5357 74.8414 69.3471C74.8414 60.8829 81.2957 54.4543 91.3414 54.4543C96.8231 54.4543 101.118 55.9062 104.489 59.5028C106.374 61.5149 105.544 64.6443 103.221 66.1317V66.1317C100.702 67.7451 97.5512 66.4907 94.9097 65.0869C93.8695 64.5342 92.697 64.2857 91.3157 64.2857C88.0243 64.2857 85.9329 66.3771 85.9329 69.1071C85.9329 72.4843 88.0243 73.8471 92.8714 75.9643L95.6829 77.1686C105.274 81.2657 110.657 85.4743 110.657 94.8986C110.657 105.025 102.674 110.592 91.9873 110.593C91.9854 110.593 91.9835 110.594 91.9821 110.595V110.595Z" fill="url(#paint0_linear_3_13)"/>
<defs>
<linearGradient id="paint0_linear_3_13" x1="60" y1="0" x2="60" y2="120" gradientUnits="userSpaceOnUse">
<stop stop-color="#1F2937"/>
<stop offset="1" stop-color="#374151"/>
</linearGradient>
</defs>
</svg>
