<svg width="120" height="120" viewBox="0 0 120 120" fill="none" xmlns="http://www.w3.org/2000/svg">
<path d="M70.6546 0C69.7897 0 68.9847 0.185727 68.2397 0.43671C69.8197 1.49084 70.6896 2.89634 71.1196 4.48256C71.1546 4.6984 71.2146 4.85401 71.2446 5.06986C71.2768 5.25588 71.2985 5.44358 71.3096 5.63206C71.4296 8.36777 70.5946 8.71413 70.0097 10.3305C69.1097 12.4136 69.3597 14.6524 70.4397 16.4544C70.5371 16.6968 70.6612 16.9274 70.8096 17.1421C69.6347 9.27131 76.1746 8.09169 77.3796 5.63206C77.4746 3.48364 75.7096 2.05304 74.3146 1.05915C73.2184 0.367585 71.9494 0.00208688 70.6546 0.00501967V0ZM80.5096 1.77194C80.3896 2.48975 80.4796 2.30402 80.4496 2.67548C80.4196 2.92646 80.4196 3.23768 80.3896 3.48364C80.3246 3.73463 80.2646 3.98561 80.1696 4.23157C80.1063 4.48256 80.0229 4.73187 79.9196 4.9795L79.5846 5.69229C79.4846 5.81779 79.4296 5.94328 79.3346 6.06877L79.1496 6.34485C79.0027 6.55828 78.8475 6.76592 78.6846 6.96729C78.4996 7.15804 78.3446 7.37388 78.1246 7.52949V7.55961C77.9396 7.71522 77.7546 7.90095 77.5346 8.06157C76.8846 8.55852 76.1446 8.92998 75.4596 9.3968C75.2446 9.54739 75.0246 9.67791 74.8396 9.86363C74.6305 10.0138 74.4333 10.1799 74.2496 10.3606C74.0346 10.5463 73.8796 10.732 73.6946 10.9529C73.5396 11.1386 73.3546 11.3545 73.2296 11.5753C73.0762 11.7871 72.9311 12.0048 72.7946 12.2279C72.6696 12.4789 72.5796 12.6947 72.4546 12.9407C72.3596 13.1917 72.2696 13.4075 72.2046 13.6585C72.1226 13.9148 72.0509 14.1744 71.9896 14.4365C71.9596 14.562 71.9596 14.7176 71.9296 14.8381C71.8946 14.9636 71.8946 15.0891 71.8646 15.2146C71.8646 15.4656 71.8346 15.7417 71.8346 15.9926C71.828 16.1767 71.838 16.3624 71.8646 16.5498C71.8646 16.7975 71.8963 17.0568 71.9596 17.3279C71.993 17.5789 72.043 17.8298 72.1096 18.0808C72.2096 18.3268 72.2696 18.5727 72.3596 18.8237C72.4246 18.9743 72.5146 19.1349 72.5796 19.2604L65.4497 16.4896C64.2447 16.1482 63.0647 15.837 61.8547 15.5559L59.9047 15.0891C58.0381 14.7176 56.1581 14.4382 54.2648 14.2508C54.1998 14.2508 54.1698 14.2207 54.1098 14.2207C50.9162 13.8974 47.7007 13.8554 44.4998 14.0952C42.6098 14.2207 40.7199 14.4667 38.8299 14.7779C37.4257 15.0229 36.03 15.3142 34.6449 15.6513L33.2499 16.0228C32.7899 16.2085 32.3499 16.4243 31.9199 16.6151L30.8949 17.0819C30.8349 17.112 30.7749 17.112 30.7449 17.1421C30.4299 17.2977 30.1549 17.4232 29.8749 17.5789C29.4731 17.7588 29.0794 17.9565 28.6949 18.1712C28.4799 18.2615 28.2649 18.387 28.075 18.4824L27.8 18.633C27.5166 18.7936 27.2466 18.9509 26.99 19.1048C26.7366 19.2495 26.4897 19.4053 26.25 19.5717C26.03 19.7222 25.815 19.8477 25.63 20.0033C25.6 20.0385 25.565 20.0385 25.535 20.0686C25.35 20.1941 25.135 20.3497 24.945 20.5053L24.885 20.5655L24.42 20.937C24.36 20.9721 24.295 21.0324 24.235 21.0625C24.08 21.188 23.925 21.3436 23.77 21.4641C23.74 21.5293 23.675 21.5645 23.645 21.5896C23.46 21.7803 23.275 21.9359 23.09 22.1216C23.055 22.1216 23.055 22.1518 23.025 22.1819C22.8333 22.352 22.6481 22.5295 22.47 22.714C22.435 22.7441 22.435 22.7742 22.405 22.7742C22.2443 22.9362 22.0893 23.1036 21.94 23.2762C21.88 23.3364 21.79 23.3966 21.725 23.4569C21.563 23.6577 21.3858 23.8456 21.195 24.0191C21.165 24.0793 21.105 24.1144 21.075 24.1697C20.825 24.4206 20.61 24.6716 20.36 24.9226L20.27 25.013C19.77 25.5451 19.245 26.0721 18.685 26.5389C18.125 27.0409 17.5467 27.4977 16.95 27.9093C15.7649 28.7579 14.4865 29.467 13.1401 30.0226C12.4901 30.3037 11.8051 30.5547 11.1251 30.7705C9.82508 31.0516 8.49009 31.5787 7.3451 31.6741C7.0951 31.6741 6.8201 31.7343 6.5701 31.7644L5.79511 31.9501L5.05011 32.2312C4.80012 32.3316 4.55345 32.4454 4.31012 32.5726C4.09012 32.7282 3.84512 32.8537 3.62512 33.0093C3.40437 33.1694 3.19702 33.3474 3.00513 33.5414C2.79013 33.692 2.57013 33.9128 2.38513 34.0986C2.20013 34.3144 2.01514 34.5001 1.86014 34.721C1.70514 34.972 1.52014 35.1878 1.39514 35.4388C1.23065 35.6638 1.08515 35.9023 0.960143 36.1516C0.835144 36.4327 0.710145 36.6837 0.620146 36.9598C0.526813 37.2174 0.43348 37.4868 0.340148 37.7679C0.280148 38.0189 0.215148 38.2699 0.190149 38.5209C0.190149 38.546 0.155149 38.5811 0.155149 38.6112C0.0951493 38.8923 0.0951493 39.2638 0.0601495 39.4495C0.0301497 39.6704 0.000149945 39.8511 0.000149945 40.0719C-0.00498921 40.6132 0.122047 41.1475 0.370147 41.628V41.6582C0.470147 41.8456 0.585146 42.033 0.715145 42.2204C0.831811 42.4078 0.965143 42.5935 1.11514 42.7775C1.27014 42.9332 1.45514 43.1239 1.64514 43.2795C1.82719 43.4599 2.02276 43.6261 2.23013 43.7765C2.97513 44.429 3.16013 44.6449 4.12012 45.1418C4.27512 45.2372 4.43012 45.2974 4.62012 45.3928C4.65012 45.3928 4.68012 45.4229 4.71012 45.4229C4.71012 45.4882 4.71012 45.5183 4.74012 45.5785C4.81383 46.0913 4.9481 46.5935 5.14011 47.0744C5.24011 47.2601 5.30011 47.4458 5.39011 47.6316C5.42345 47.6985 5.45678 47.7504 5.49011 47.7872C5.61011 48.0382 5.73511 48.254 5.85511 48.4749L6.32011 49.1274C6.4751 49.3131 6.6651 49.529 6.8501 49.7197C7.0351 49.9105 7.2201 50.0611 7.4401 50.2468C7.4401 50.2468 7.4701 50.2769 7.5001 50.2769C7.68343 50.4375 7.87009 50.5831 8.06009 50.7136C8.27587 50.8653 8.50324 50.9995 8.74009 51.1152C8.95509 51.2407 9.20509 51.3662 9.45008 51.4616C9.65182 51.5471 9.85893 51.6192 10.0701 51.6774C10.1051 51.7075 10.1351 51.7075 10.1951 51.7376C10.3201 51.7728 10.4751 51.8029 10.5951 51.833C10.5051 53.5146 10.4751 55.0958 10.7251 55.658C11.0001 56.2804 12.3651 54.383 13.7251 52.2045C13.5451 54.3529 13.4201 56.8728 13.7251 57.6207C14.0701 58.3987 15.925 55.9692 17.54 53.2937C39.5149 48.1938 59.5647 63.4334 61.6697 84.9678C61.2697 81.6046 57.1447 79.7423 55.2548 80.2092C54.3248 82.5082 52.7448 85.4647 50.2048 87.3019C50.4198 85.2439 50.3298 83.1356 49.8948 81.0775C49.2021 83.9428 47.8894 86.6198 46.0498 88.9183C43.1098 89.1341 40.1649 87.7035 38.6149 85.5551C38.4899 85.4647 38.4599 85.279 38.3649 85.1535C38.2682 84.936 38.1849 84.7185 38.1149 84.501C38.0241 84.2929 37.9618 84.0733 37.9299 83.8484C37.9032 83.6342 37.8932 83.405 37.8999 83.1607V82.6939C37.937 82.4731 37.9888 82.2551 38.0549 82.0413C38.1115 81.8272 38.1849 81.6096 38.2749 81.3888C38.3949 81.1729 38.4899 80.9521 38.6449 80.7362C39.1699 79.2404 39.1699 78.0256 38.2099 77.3128C38.0203 77.196 37.8232 77.092 37.6199 77.0016C37.4999 76.9715 37.3449 76.9112 37.2199 76.8761L36.9699 76.7857C36.7569 76.7194 36.5398 76.6674 36.3199 76.6301C36.1084 76.5698 35.8898 76.5377 35.6699 76.5348C35.4449 76.4992 35.2177 76.479 34.9899 76.4745C34.8349 76.4745 34.6799 76.5046 34.5249 76.5046C34.2933 76.5044 34.0627 76.5365 33.8399 76.6C33.6266 76.6268 33.4099 76.6669 33.1899 76.7205C32.9685 76.7791 32.7513 76.8529 32.5399 76.9414C32.3249 77.0317 32.1399 77.1271 31.9199 77.2225C31.7349 77.3128 31.5499 77.4383 31.3299 77.5337C24.11 82.2622 28.42 93.3356 33.3449 96.5431C31.4849 96.8845 29.5949 97.286 29.0699 97.6926L29.0049 97.7529C30.3383 98.556 31.7333 99.2521 33.1899 99.841C35.1749 100.494 37.2799 101.081 38.2099 101.332V101.362C40.7776 101.891 43.4032 102.08 46.0198 101.924C59.7497 100.96 70.9996 90.4744 73.0446 76.6603L73.2296 77.4684C73.3246 78.0306 73.4446 78.6229 73.5096 79.2102V79.2404C73.563 79.5248 73.6046 79.7959 73.6346 80.0535V80.174C73.668 80.4585 73.688 80.7295 73.6946 80.9872C73.728 81.3285 73.748 81.6699 73.7546 82.0112V82.5132C73.7546 82.6638 73.7896 82.8495 73.7896 83.0051C73.7896 83.1958 73.7546 83.3816 73.7546 83.5673V84.004C73.7546 84.2199 73.7246 84.4056 73.7246 84.6265C73.7313 84.7469 73.7213 84.8808 73.6946 85.028C73.6946 85.2489 73.6646 85.4647 73.6646 85.7157C73.6413 85.8061 73.6313 85.8981 73.6346 85.9918L73.5346 86.7096C73.538 86.8033 73.5296 86.897 73.5096 86.9907C73.4746 87.3019 73.4146 87.583 73.3846 87.8942V87.9545L73.1996 88.8279V88.9183L73.0146 89.7565C73.0146 89.7917 72.9796 89.8569 72.9796 89.882C72.9201 90.1661 72.8484 90.4475 72.7646 90.7253V90.8157C72.6646 91.1202 72.5813 91.4114 72.5146 91.6891C72.488 91.7226 72.478 91.7427 72.4846 91.7494L72.2046 92.683C72.0846 92.9942 71.9896 93.2753 71.8646 93.5865C71.7396 93.8978 71.6496 94.209 71.5246 94.4901C71.3996 94.8013 71.2746 95.0774 71.1546 95.3936H71.1196C70.9996 95.6697 70.8696 95.9809 70.7196 96.262L70.6246 96.4779C70.5946 96.508 70.5946 96.5431 70.5646 96.5732C68.5099 100.689 65.5277 104.268 61.8547 107.024C61.6047 107.18 61.3597 107.371 61.1097 107.556C61.0497 107.617 60.9597 107.647 60.8947 107.707C60.6724 107.87 60.4457 108.028 60.2147 108.179L60.3047 108.364H60.3397L61.6397 108.179H61.6697C62.473 108.048 63.278 107.903 64.0847 107.742C64.3047 107.712 64.5497 107.647 64.7697 107.586L65.2047 107.491C65.4197 107.461 65.6347 107.401 65.8547 107.371C66.0397 107.305 66.2247 107.27 66.4097 107.215C69.5097 106.462 72.5146 105.438 75.3996 104.228C70.423 111.043 63.7977 116.471 56.1497 120C59.7197 119.749 63.2797 119.162 66.7197 118.163C79.1714 114.489 89.6879 106.053 96.0045 94.6708C94.7274 101.875 91.8813 108.707 87.6695 114.679C90.6721 112.689 93.4471 110.372 95.9445 107.772C102.888 100.506 107.443 91.2761 108.994 81.3285C110.044 86.2478 110.354 91.3177 109.894 96.3223C132.264 64.9946 111.749 32.5123 103.164 23.9588C103.134 23.8936 103.104 23.8635 103.104 23.8032C103.074 23.8333 103.074 23.8333 103.074 23.8635C103.074 23.8333 103.074 23.8333 103.039 23.8032C103.033 24.1713 103.013 24.5445 102.979 24.9226C102.894 25.6196 102.791 26.3142 102.669 27.0058C102.519 27.6884 102.329 28.3761 102.144 29.0638C101.924 29.7164 101.679 30.3991 101.394 31.0516C101.113 31.6968 100.804 32.3299 100.469 32.9491C99.772 34.1651 98.9742 35.3204 98.0845 36.4026C97.6195 36.9598 97.1245 37.4567 96.6245 37.9587C96.3322 38.2269 96.0321 38.4864 95.7245 38.7367L95.0145 39.3592C94.4578 39.7928 93.8786 40.1966 93.2795 40.5689C92.6885 40.9541 92.0777 41.3076 91.4495 41.628C90.7995 41.9326 90.1495 42.2237 89.4995 42.5015C88.1753 43.0059 86.8056 43.3808 85.4096 43.6209C84.6946 43.7463 83.9846 43.8066 83.2996 43.8718C82.8053 43.9067 82.3101 43.9268 81.8146 43.9321C81.1098 43.9201 80.4058 43.8783 79.7046 43.8066C78.9965 43.753 78.293 43.649 77.5996 43.4954C76.8963 43.3695 76.2029 43.1934 75.5246 42.9683H75.4896C76.1746 42.903 76.8546 42.8428 77.5396 42.7173C78.935 42.4742 80.3044 42.0994 81.6296 41.5979C82.3096 41.3469 82.9596 41.0357 83.5796 40.7245C84.2296 40.4133 84.8196 40.0719 85.4395 39.7005C86.0329 39.3023 86.6112 38.8873 87.1745 38.4556C87.7345 38.0206 88.2612 37.5538 88.7545 37.0551C89.2795 36.5883 89.7445 36.0612 90.2095 35.5292C90.6762 34.9703 91.1095 34.4114 91.5095 33.8526C91.5745 33.7572 91.6395 33.6317 91.6995 33.5414C92.0162 33.0394 92.3162 32.5408 92.5995 32.0455C93.2819 30.8069 93.8412 29.5039 94.2695 28.1553C94.4895 27.5027 94.6445 26.82 94.7995 26.1324C94.9245 25.4196 95.0495 24.7369 95.1095 24.0492C95.1695 23.3364 95.2345 22.6186 95.2345 21.9359C95.2345 21.4339 95.1995 20.937 95.1695 20.4401C95.1068 19.7433 95.0234 19.0486 94.9195 18.3569C94.7956 17.6563 94.6422 16.9613 94.4595 16.2737C94.2395 15.6212 94.0245 14.9335 93.7745 14.2809C93.5245 13.6284 93.2195 12.9758 92.9095 12.3534C92.5695 11.7276 92.2178 11.1152 91.8545 10.5162C91.4583 9.93495 91.0448 9.36579 90.6145 8.8095C90.1545 8.27407 89.6795 7.74366 89.1895 7.21827C88.9285 6.95145 88.66 6.692 88.3845 6.44022C86.9779 5.34594 85.5412 4.33029 84.0746 3.39329C83.8753 3.27528 83.6682 3.17129 83.4546 3.08207C82.5357 2.51622 81.5452 2.07221 80.5096 1.77194Z" fill="url(#paint0_linear_3_48)"/>
<defs>
<linearGradient id="paint0_linear_3_48" x1="60" y1="0" x2="60" y2="120" gradientUnits="userSpaceOnUse">
<stop stop-color="#1F2937"/>
<stop offset="1" stop-color="#374151"/>
</linearGradient>
</defs>
</svg>
