<svg width="108" height="120" viewBox="0 0 108 120" fill="none" xmlns="http://www.w3.org/2000/svg">
<path d="M54 0C52.4039 0 50.7488 0.413793 49.3892 1.18227L5.40886 26.601C2.57143 28.2562 0.798027 31.3301 0.798027 34.6404V85.3596C0.798027 88.67 2.57143 91.7438 5.40886 93.399L16.936 100.02C22.5517 102.739 24.4433 102.798 27.0443 102.798C35.3202 102.798 40.1084 97.7734 40.1084 89.0246V38.9557C40.1084 38.2463 39.5172 37.6552 38.8079 37.6552H33.3103C32.5419 37.6552 31.9507 38.2463 31.9507 38.9557V89.0246C31.9507 92.9261 27.931 96.7685 21.4877 93.5172L9.36945 86.601C9.17043 86.4604 9.00767 86.2746 8.89462 86.0587C8.78156 85.8429 8.72144 85.6033 8.71921 85.3596V34.6404C8.71921 34.1084 8.95566 33.6355 9.36945 33.399L53.3498 8.03941C53.7044 7.80296 54.2956 7.80296 54.6502 8.03941L98.6305 33.399C99.0443 33.6355 99.2808 34.1084 99.2808 34.6404V85.3596C99.2808 85.8325 99.0443 86.3054 98.6305 86.601L54.6502 111.961C54.2956 112.197 53.7044 112.197 53.2906 111.961L42.1773 105.222C41.7044 105.044 41.2315 104.985 40.936 105.163C37.803 106.936 37.2118 107.291 34.3153 108.177C33.6059 108.414 32.4828 108.828 34.7291 110.069L49.3892 118.759C50.8079 119.586 52.3448 120 54 120C55.6552 120 57.1921 119.586 58.6108 118.759L102.591 93.399C105.429 91.7438 107.202 88.67 107.202 85.3596V34.6404C107.202 31.3301 105.429 28.2562 102.591 26.601L58.6108 1.18227C57.2512 0.413793 55.6552 0 54 0ZM65.8227 36.3547C53.2906 36.3547 45.7832 41.6158 45.7832 50.4828C45.7832 60 53.2315 62.7783 65.2906 63.9606C79.6552 65.3793 80.7783 67.5074 80.7783 70.3448C80.7783 75.2512 76.8177 77.3202 67.5961 77.3202C55.8916 77.3202 53.4089 74.4236 52.5222 68.6305C52.4599 68.3311 52.2968 68.0621 52.0601 67.8685C51.8235 67.6748 51.5275 67.5682 51.2217 67.5665H45.5468C44.8374 67.5665 44.3054 68.0985 44.3054 68.867C44.3054 76.197 48.3251 85.064 67.5961 85.064C81.4877 85.064 89.468 79.5665 89.468 69.9901C89.468 60.4729 83.0837 57.9901 69.5468 56.1576C55.8916 54.3842 54.532 53.4384 54.532 50.2463C54.532 47.5862 55.7143 44.0394 65.8227 44.0394C74.6897 44.0394 78.1773 45.9901 79.5369 52.0788C79.6552 52.6699 80.1872 53.0837 80.7783 53.0837H86.5123C86.8079 53.0837 87.1626 52.9655 87.399 52.67C87.6355 52.4335 87.8128 52.0788 87.6946 51.7241C86.867 41.202 79.8916 36.3547 65.8227 36.3547Z" fill="url(#paint0_linear_3_35)"/>
<defs>
<linearGradient id="paint0_linear_3_35" x1="54" y1="0" x2="54" y2="120" gradientUnits="userSpaceOnUse">
<stop stop-color="#1F2937"/>
<stop offset="1" stop-color="#374151"/>
</linearGradient>
</defs>
</svg>
