<svg width="134" height="120" viewBox="0 0 134 120" fill="none" xmlns="http://www.w3.org/2000/svg">
<path d="M67 48.2084C73.4195 48.2084 78.6549 53.4491 78.6549 60C78.6549 66.2389 73.4195 71.542 67 71.542C60.5805 71.542 55.3451 66.2389 55.3451 60C55.3451 53.4491 60.5805 48.2084 67 48.2084ZM38.1433 109.911C42.0698 112.282 50.6707 108.664 60.5805 99.3053C57.3395 95.6243 54.1609 91.6314 51.1693 87.4513C46.1472 86.9666 41.1542 86.2169 36.2112 85.2053C33.0326 98.5566 34.2167 107.728 38.1433 109.911ZM42.5684 74.1L40.7609 70.9181C40.0753 72.7274 39.3898 74.5367 38.9535 76.2836C40.6363 76.6579 42.506 76.9699 44.4381 77.2818L42.5684 74.1ZM83.3293 69.3584L88.3777 60L83.3293 50.6416C81.4595 47.335 79.4651 44.4027 77.6577 41.4704C74.2921 41.2832 70.7395 41.2832 67 41.2832C63.2605 41.2832 59.7079 41.2832 56.3423 41.4704C54.5349 44.4027 52.5405 47.335 50.6707 50.6416L45.6223 60L50.6707 69.3584C52.5405 72.665 54.5349 75.5973 56.3423 78.5296C59.7079 78.7168 63.2605 78.7168 67 78.7168C70.7395 78.7168 74.2921 78.7168 77.6577 78.5296C79.4651 75.5973 81.4595 72.665 83.3293 69.3584ZM67 27.4328C65.8158 28.8053 64.5693 30.2403 63.3228 31.9248H70.6772C69.4307 30.2403 68.1842 28.8053 67 27.4328ZM67 92.5672C68.1842 91.1946 69.4307 89.7597 70.6772 88.0752H63.3228C64.5693 89.7597 65.8158 91.1946 67 92.5672ZM95.7944 10.0886C91.9302 7.71776 83.3293 11.3363 73.4195 20.6947C76.6605 24.3757 79.8391 28.3686 82.8307 32.5487C87.9414 33.0478 92.9898 33.7965 97.7888 34.7947C100.967 21.4434 99.7833 12.2722 95.7944 10.0886ZM91.4316 45.9L93.2391 49.0819C93.9246 47.2726 94.6102 45.4633 95.0465 43.7164C93.3637 43.3421 91.494 43.0301 89.5619 42.7182L91.4316 45.9ZM100.469 1.91556C109.631 7.15626 110.628 20.9443 106.764 37.0407C122.594 41.7199 134 49.4562 134 60C134 70.5438 122.594 78.2801 106.764 82.9593C110.628 99.0557 109.631 112.844 100.469 118.084C91.3693 123.325 78.9665 117.336 67 105.919C55.0335 117.336 42.6307 123.325 33.4688 118.084C24.3693 112.844 23.3721 99.0557 27.2363 82.9593C11.4056 78.2801 0 70.5438 0 60C0 49.4562 11.4056 41.7199 27.2363 37.0407C23.3721 20.9443 24.3693 7.15626 33.4688 1.91556C42.6307 -3.32514 55.0335 2.66423 67 14.0815C78.9665 2.66423 91.3693 -3.32514 100.469 1.91556ZM98.6614 60C100.78 64.6792 102.65 69.3584 104.208 74.1C117.297 70.1695 124.651 64.5544 124.651 60C124.651 55.4456 117.297 49.8305 104.208 45.9C102.65 50.6416 100.78 55.3208 98.6614 60ZM35.3386 60C33.2195 55.3208 31.3498 50.6416 29.7916 45.9C16.7033 49.8305 9.34884 55.4456 9.34884 60C9.34884 64.5544 16.7033 70.1695 29.7916 74.1C31.3498 69.3584 33.2195 64.6792 35.3386 60ZM91.4316 74.1L89.5619 77.2818C91.494 76.9699 93.3637 76.6579 95.0465 76.2836C94.6102 74.5367 93.9246 72.7274 93.2391 70.9181L91.4316 74.1ZM73.4195 99.3053C83.3293 108.664 91.9302 112.282 95.7944 109.911C99.7833 107.728 100.967 98.5566 97.7888 85.2053C92.9898 86.2035 87.9414 86.9522 82.8307 87.4513C79.8391 91.6314 76.6605 95.6243 73.4195 99.3053ZM42.5684 45.9L44.4381 42.7182C42.506 43.0301 40.6363 43.3421 38.9535 43.7164C39.3898 45.4633 40.0753 47.2726 40.7609 49.0819L42.5684 45.9ZM60.5805 20.6947C50.6707 11.3363 42.0698 7.71776 38.1433 10.0886C34.2167 12.2722 33.0326 21.4434 36.2112 34.7947C41.1542 33.7831 46.1472 33.0333 51.1693 32.5487C54.1609 28.3686 57.3395 24.3757 60.5805 20.6947Z" fill="url(#paint0_linear_3_22)"/>
<defs>
<linearGradient id="paint0_linear_3_22" x1="67" y1="0" x2="67" y2="120" gradientUnits="userSpaceOnUse">
<stop stop-color="#1F2937"/>
<stop offset="1" stop-color="#374151"/>
</linearGradient>
</defs>
</svg>
