<svg width="126" height="120" viewBox="0 0 126 120" fill="none" xmlns="http://www.w3.org/2000/svg">
<g clip-path="url(#clip0_3_38)">
<path d="M96.4688 0H29.5312C13.2216 0 0 12.592 0 28.125V91.875C0 107.408 13.2216 120 29.5312 120H96.4688C112.778 120 126 107.408 126 91.875V28.125C126 12.592 112.778 0 96.4688 0Z" fill="#242938"/>
<path d="M112.219 85.7517C110.786 86.2688 109.204 86.2678 107.772 85.7492C106.34 85.2305 105.157 84.23 104.447 82.9369C99.9859 76.5774 95.0601 70.5047 90.3258 64.3017L88.2728 61.6955C82.6353 68.8889 76.9978 75.7955 71.853 82.9631C71.1829 84.1989 70.0639 85.1605 68.7045 85.6688C67.3452 86.1771 65.8382 86.1974 64.4643 85.7259L85.6185 58.6983L65.9418 34.2764C67.3582 33.7894 68.9077 33.7827 70.3287 34.2575C71.7497 34.7323 72.9551 35.6596 73.7415 36.8827C78.3115 43.2427 83.3746 49.3153 88.4097 55.7531C93.4728 49.3674 98.4808 43.2684 103.161 36.9609C103.834 35.7451 104.954 34.8077 106.306 34.3271C107.659 33.8465 109.149 33.8563 110.495 34.3547L102.859 43.9983C99.4386 48.2986 96.0725 52.6252 92.515 56.8214C92.2283 57.0659 91.9989 57.3652 91.8419 57.6998C91.6849 58.0343 91.6037 58.3967 91.6037 58.7632C91.6037 59.1297 91.6849 59.4921 91.8419 59.8267C91.9989 60.1613 92.2283 60.4606 92.515 60.705C99.0557 68.9672 105.541 77.2552 112.219 85.7517ZM13.7812 58.3594C14.3561 55.7531 14.7115 52.912 15.5054 50.2538C20.2397 34.2249 39.533 27.5522 52.8058 37.4827C60.5779 43.2952 62.5211 51.5311 62.1382 60.8095H18.3517C17.64 77.3859 30.2011 87.3942 46.2651 82.2858C48.871 81.3981 51.2038 79.9063 53.0528 77.9451C54.9019 75.9838 56.2089 73.6149 56.856 71.0522C57.7046 68.4459 59.0728 68.003 61.6726 68.7586C61.2443 71.9316 60.0664 74.9708 58.2273 77.6477C56.3882 80.3247 53.9359 82.5698 51.0546 84.2142C46.2941 86.694 40.832 87.6765 35.4497 87.0212C30.0674 86.3658 25.0406 84.1062 21.0883 80.5655C17.1781 76.3782 14.8138 71.0875 14.3561 65.5008C14.3561 64.6149 14.0003 63.7284 13.8088 62.8945C13.7907 61.3829 13.7815 59.8711 13.7812 58.3594ZM18.4063 57.2386H58.0058C57.7592 45.2236 49.7956 36.7008 39.1776 36.623C27.3553 36.4664 18.899 44.8064 18.3788 57.1866L18.4063 57.2386Z" fill="white"/>
</g>
<defs>
<clipPath id="clip0_3_38">
<rect width="126" height="120" fill="white"/>
</clipPath>
</defs>
</svg>
